<?xml version="1.0" standalone="no"?>
<!DOCTYPE svg PUBLIC "-//W3C//DTD SVG 20010904//EN"
 "http://www.w3.org/TR/2001/REC-SVG-20010904/DTD/svg10.dtd">
<svg version="1.0" xmlns="http://www.w3.org/2000/svg"
 width="1039.000000pt" height="1039.000000pt" viewBox="0 0 1039.000000 1039.000000"
 preserveAspectRatio="xMidYMid meet">
<metadata>
Created by potrace 1.14, written by Peter Selinger 2001-2017
</metadata>
<g transform="translate(0.000000,1039.000000) scale(0.100000,-0.100000)"
fill="#000000" stroke="none">
<path d="M8507 9054 c-1 -1 -58 -5 -127 -8 -69 -3 -136 -8 -150 -10 -14 -3
-47 -7 -75 -11 -27 -4 -64 -8 -81 -10 -71 -10 -282 -58 -411 -95 -478 -135
-890 -303 -1258 -514 l-129 -74 -41 33 c-22 18 -81 62 -131 97 -79 55 -133 83
-299 153 -16 7 -78 34 -136 58 -95 41 -151 60 -214 73 -56 13 -198 33 -255 38
-36 3 -90 8 -120 12 -142 19 -318 8 -595 -37 -265 -42 -278 -46 -620 -187 -99
-41 -185 -75 -190 -75 -6 0 -55 33 -110 73 -54 40 -130 90 -169 111 -128 68
-478 208 -561 223 -120 23 -171 30 -320 42 -139 12 -326 7 -395 -11 -8 -2 -39
-7 -69 -10 -30 -4 -63 -9 -75 -11 -23 -4 -65 -12 -108 -18 -172 -27 -547 -195
-719 -322 -284 -210 -382 -301 -508 -469 -33 -44 -68 -91 -79 -105 -145 -190
-300 -503 -406 -823 -27 -82 -62 -212 -70 -262 -2 -16 -9 -59 -15 -95 -12 -80
-19 -128 -26 -205 -4 -33 -8 -67 -10 -75 -2 -8 -7 -51 -11 -95 -3 -44 -8 -89
-10 -100 -7 -30 -6 -370 1 -450 9 -119 22 -248 30 -315 11 -90 26 -207 30
-230 11 -69 57 -416 71 -530 3 -25 7 -59 9 -76 42 -306 51 -757 19 -929 -3
-16 -10 -50 -15 -75 -6 -25 -12 -52 -14 -61 -2 -8 -17 -69 -35 -135 -45 -168
-60 -233 -66 -279 -10 -75 -12 -240 -3 -310 4 -38 11 -90 14 -115 12 -106 47
-275 64 -315 4 -11 23 -56 42 -100 36 -87 113 -221 183 -318 69 -98 271 -295
366 -359 158 -105 457 -228 625 -257 173 -30 336 -32 531 -5 30 4 63 -2 128
-25 139 -49 326 -93 456 -106 36 -4 74 -9 85 -11 25 -5 378 -5 425 0 92 9 167
19 185 22 11 3 36 7 55 10 51 8 196 41 260 59 30 9 62 18 70 20 133 35 520
206 604 268 6 4 56 37 111 73 420 278 725 669 824 1059 l10 40 103 35 c299
100 619 313 913 606 112 112 235 221 425 375 138 113 366 296 415 334 21 17
83 66 139 111 56 44 198 156 316 249 118 93 220 174 227 180 6 5 24 20 40 31
15 12 93 73 172 135 79 63 179 141 221 174 115 90 150 117 184 145 17 14 105
84 196 155 91 72 172 135 180 142 8 7 44 36 81 65 36 29 82 67 103 83 22 17
57 45 80 63 23 18 48 39 56 45 115 92 391 316 410 333 14 12 90 78 170 145
180 152 298 266 403 389 45 52 85 97 88 100 4 3 45 57 91 121 127 175 203 322
252 491 33 115 41 179 40 333 -1 107 -6 149 -28 237 -62 247 -205 463 -414
628 -42 33 -83 65 -89 70 -34 28 -239 135 -332 173 -142 59 -366 132 -471 153
-46 9 -185 33 -220 38 -69 10 -317 25 -323 20z"/>
</g>
</svg>
